:SAMPLES-PER-SECOND 30
:FULLY-SPECIFIED
:DEGREES
311
root  11.1067 31.1521 -0.747033 -38.5426 -84.4871 41.4317
RightUpLeg  -53.0374 3.85186 -1.27495
RightLeg  74.6257 -1.87873 -8.95404
RightFoot  -21.253 0.257507 4.62781
RightToes  5.82063e-011 0 -3.6325e-017
Spine  49.0724 -2.18415 6.01996
Spine1  -10.6862 1.98666 -7.55083
HEad  -43.7096 -11.7915 6.05447
LeftShoulder1  -0.419788 -2.95403 17.0741
LeftArm  58.8371 -81.187 -138.639
LeftForeArm  143.987 -77.0317 -132.984
LeftHand  -0.940199 1.45183 27.4524
RightShoulder  -0.140608 -2.54414 -27.675
RightArm  -124.63 73.0216 -61.5023
RightForeArm  0.696323 -5.92098 0.699196
RightHand  0.0599784 -5.86284 -17.891
LeftUpLeg  -50.9287 -5.59223 -6.78922
LeftLeg  72.8245 1.7821 7.61852
LeftFoot  -24.1707 -0.526948 -5.96929
LeftToes  -1.1369e-010 2.7689e-011 -1.90827e-011
312
root  10.8841 30.5384 -1.30554 -22.8006 -82.2001 24.0351
RightUpLeg  -52.3017 1.77601 0.49179
RightLeg  77.7748 -1.61365 -10.3232
RightFoot  -23.3481 0.367694 5.00635
RightToes  5.82063e-011 0 -3.6325e-017
Spine  48.373 -2.02797 7.12062
Spine1  -7.92105 2.83822 -8.7627
HEad  -46.4178 -13.2748 6.41409
LeftShoulder1  -0.297807 -1.81222 16.0763
LeftArm  61.7459 -79.1965 -139.712
LeftForeArm  144.919 -76.704 -134.399
LeftHand  -0.943109 1.29551 26.5188
RightShoulder  -0.511923 0.975121 -22.8975
RightArm  -93.8586 79.7875 -25.1066
RightForeArm  7.64104 -6.26418 2.35502
RightHand  0.15775 -6.48956 -18.0754
LeftUpLeg  -50.8415 -7.08509 -5.65292
LeftLeg  76.1273 1.05743 6.37963
LeftFoot  -25.5717 -0.585944 -5.91872
LeftToes  -1.1369e-010 2.7689e-011 -1.90827e-011
313
root  10.6195 30.5128 -1.93584 -13.5334 -78.886 14.1047
RightUpLeg  -51.0557 -0.467483 2.1815
RightLeg  78.1313 -1.93518 -12.4308
RightFoot  -24.1318 0.402556 5.0508
RightToes  5.82063e-011 0 -3.6325e-017
Spine  47.6673 -1.80151 8.20757
Spine1  -5.71433 3.81962 -9.83729
HEad  -50.2231 -15.5232 7.02661
LeftShoulder1  -0.215477 -0.402739 15.9903
LeftArm  71.3674 -78.4822 -147.719
LeftForeArm  145.483 -76.4979 -135.246
LeftHand  -0.967502 1.0832 25.8818
RightShoulder  -0.475065 3.78155 -17.2203
RightArm  -44.0983 77.3925 28.9788
RightForeArm  13.4923 -6.5258 3.78665
RightHand  0.315091 -7.5288 -17.9434
LeftUpLeg  -50.2306 -9.32396 -4.11382
LeftLeg  76.4335 0.638346 4.53695
LeftFoot  -25.901 -0.609349 -5.98395
LeftToes  -1.1369e-010 2.7689e-011 -1.90827e-011
314
root  10.3163 31.0446 -2.63001 -7.02005 -75.0422 7.7489
RightUpLeg  -49.2577 -2.40245 3.89602
RightLeg  75.7952 -2.90431 -14.3198
RightFoot  -23.6282 0.38045 5.02453
RightToes  5.82063e-011 0 -3.6325e-017
Spine  47.2619 -1.25456 8.73204
Spine1  -4.74541 4.68402 -9.81061
HEad  -53.6038 -17.8643 7.76593
LeftShoulder1  -0.15996 0.849459 16.5687
LeftArm  84.7035 -78.7779 -160.167
LeftForeArm  144.665 -76.6358 -134.581
LeftHand  -0.976269 1.01723 25.7286
RightShoulder  -0.16211 5.94146 -11.6302
RightArm  -27.0041 70.4076 49.0743
RightForeArm  17.7115 -6.69433 4.81511
RightHand  0.4238 -8.35111 -17.2913
LeftUpLeg  -49.2694 -11.5592 -2.11754
LeftLeg  74.1276 0.31423 2.46893
LeftFoot  -24.6959 -0.540699 -5.87716
LeftToes  -1.1369e-010 2.7689e-011 -1.90827e-011
315
root  9.98658 32.0384 -3.33301 -2.44452 -70.7634 4.19531
RightUpLeg  -47.2149 -3.98769 5.35531
RightLeg  71.1545 -4.76698 -16.0987
RightFoot  -21.8319 0.30102 4.88517
RightToes  5.82063e-011 0 -3.6325e-017
Spine  46.8282 -0.505856 8.3857
Spine1  -4.99399 5.05671 -8.54281
HEad  -55.1229 -19.5252 8.38039
LeftShoulder1  -0.10421 1.9295 17.1918
LeftArm  97.4566 -78.7503 -172.985
LeftForeArm  142.128 -77.0211 -132.585
LeftHand  -0.957899 1.10366 25.7509
RightShoulder  0.185124 7.21292 -7.67314
RightArm  -21.7561 64.6157 55.7817
RightForeArm  19.4928 -6.8369 5.71166
RightHand  0.460105 -8.76255 -16.4974
LeftUpLeg  -48.1069 -13.7107 -0.0583926
LeftLeg  69.3104 -0.174444 0.392778
LeftFoot  -22.0427 -0.411247 -5.80346
LeftToes  -1.1369e-010 2.7689e-011 -1.90827e-011
316
root  9.66112 33.337 -3.97279 0.429413 -66.4228 3.15393
RightUpLeg  -45.1859 -5.01667 6.21275
RightLeg  64.8133 -7.84168 -18.154
RightFoot  -18.903 0.153627 4.23442
RightToes  5.82063e-011 0 -3.6325e-017
Spine  45.9146 0.162906 7.47094
Spine1  -6.04003 4.92056 -6.98769
HEad  -54.3188 -20.3517 8.88468
LeftShoulder1  -0.0754888 2.38903 17.3812
LeftArm  103.874 -78.2526 -179.756
LeftForeArm  139.685 -77.2732 -131.008
LeftHand  -0.959657 1.08339 25.6793
RightShoulder  0.351998 7.83827 -6.10456
RightArm  -20.0941 61.6158 56.9597
RightForeArm  19.1955 -6.9753 6.54245
RightHand  0.470151 -8.99535 -15.8171
LeftUpLeg  -46.6646 -15.7479 1.6306
LeftLeg  62.1835 -1.11199 -1.62247
LeftFoot  -18.5341 -0.264081 -5.9702
LeftToes  -1.1369e-010 2.7689e-011 -1.90827e-011
317
root  9.36282 34.7449 -4.511 2.41028 -62.4229 3.46533
RightUpLeg  -43.0486 -5.28277 6.37722
RightLeg  57.4631 -12.0698 -19.8657
RightFoot  -15.383 0.00961012 3.21893
RightToes  5.82063e-011 0 -3.6325e-017
Spine  44.4721 0.324208 6.77737
Spine1  -7.21487 4.40771 -6.45607
HEad  -52.0491 -20.7077 9.76563
LeftShoulder1  -0.0801453 2.33649 17.4917
LeftArm  105.1 -77.802 178.797
LeftForeArm  139.309 -77.1673 -131.337
LeftHand  -0.981201 1.01985 25.8687
RightShoulder  0.288822 7.851 -6.75964
RightArm  -21.5859 62.0244 53.5659
RightForeArm  17.5486 -7.01974 6.77836
RightHand  0.469146 -9.1145 -15.3129
LeftUpLeg  -44.8669 -17.4649 2.81529
LeftLeg  53.5206 -2.55284 -3.20062
LeftFoot  -14.353 -0.0762433 -6.12797
LeftToes  -1.1369e-010 2.7689e-011 -1.90827e-011
318
root  9.0868 36.0543 -4.94959 4.18484 -58.7494 4.14078
RightUpLeg  -40.9388 -5.00015 6.00626
RightLeg  49.9706 -16.6672 -20.413
RightFoot  -11.7688 -0.0715225 2.49827
RightToes  5.82063e-011 0 -3.6325e-017
Spine  42.8163 -0.0375345 6.59355
Spine1  -8.13918 3.65231 -6.87354
HEad  -49.4038 -21.0282 10.9656
LeftShoulder1  -0.0801958 2.38428 17.8482
LeftArm  105.326 -77.5866 178.239
LeftForeArm  140.04 -76.8834 -132.617
LeftHand  -0.963099 1.23399 26.6813
RightShoulder  0.0324029 6.94881 -9.36831
RightArm  -27.3341 64.6123 44.8423
RightForeArm  13.9707 -6.94217 6.28512
RightHand  0.44993 -8.92985 -15.4791
LeftUpLeg  -43.1233 -18.789 3.58908
LeftLeg  44.5951 -4.08314 -3.89566
LeftFoot  -9.3863 0.16332 -6.23358
LeftToes  -1.1369e-010 2.7689e-011 -1.90827e-011
319
root  8.84198 37.0953 -5.30173 6.01212 -55.3216 4.78754
RightUpLeg  -39.5059 -4.36946 5.22915
RightLeg  43.4587 -20.4466 -19.7755
RightFoot  -8.18168 -0.116935 2.21766
RightToes  5.82063e-011 0 -3.6325e-017
Spine  41.4458 -0.570416 6.77705
Spine1  -9.3842 2.91885 -7.57455
HEad  -47.06 -21.7236 11.9142
LeftShoulder1  -0.0404982 2.97046 18.3736
LeftArm  106.731 -77.2845 175.932
LeftForeArm  140.102 -76.7205 -133.238
LeftHand  -0.899927 1.65956 27.73
RightShoulder  -0.252327 5.00119 -13.1605
RightArm  -38.8417 66.7098 28.9535
RightForeArm  8.01002 -6.7724 5.36012
RightHand  0.398113 -8.38306 -16.1932
LeftUpLeg  -42.0131 -19.5803 3.95891
LeftLeg  36.7738 -4.99485 -3.64029
LeftFoot  -4.06241 0.45573 -6.73435
LeftToes  -1.1369e-010 2.7689e-011 -1.90827e-011
